<svg width="138" height="158" viewBox="0 0 138 158" fill="none" xmlns="http://www.w3.org/2000/svg">
<path d="M131.5 69.625H118.219V25.875C118.219 12.0664 107.027 0.875 93.2188 0.875H44.7812C30.9727 0.875 19.7812 12.0664 19.7812 25.875V69.625H6.5C3.04297 69.625 0.25 72.418 0.25 75.875V150.875C0.25 154.332 3.04297 157.125 6.5 157.125H131.5C134.957 157.125 137.75 154.332 137.75 150.875V75.875C137.75 72.418 134.957 69.625 131.5 69.625ZM33.8438 25.875C33.8438 19.8398 38.7461 14.9375 44.7812 14.9375H93.2188C99.2539 14.9375 104.156 19.8398 104.156 25.875V69.625H33.8438V25.875ZM123.688 143.062H14.3125V83.6875H123.688V143.062ZM63.5312 115.914V126.266C63.5312 127.125 64.2344 127.828 65.0938 127.828H72.9062C73.7656 127.828 74.4688 127.125 74.4688 126.266V115.914C76.081 114.757 77.2844 113.117 77.9057 111.232C78.527 109.347 78.5341 107.314 77.9262 105.424C77.3182 103.535 76.1264 101.888 74.5223 100.719C72.9183 99.5498 70.9847 98.92 69 98.92C67.0153 98.92 65.0817 99.5498 63.4777 100.719C61.8736 101.888 60.6818 103.535 60.0738 105.424C59.4659 107.314 59.473 109.347 60.0943 111.232C60.7156 113.117 61.919 114.757 63.5312 115.914Z" fill="#F2C94C"/>
</svg>
