<svg width="52" height="55" viewBox="0 0 52 55" fill="none" xmlns="http://www.w3.org/2000/svg">
<rect x="0.5" y="0.5" width="51" height="54" rx="9.5" stroke="#F2C94C"/>
<path fill-rule="evenodd" clip-rule="evenodd" d="M42.25 13H28.5L27.625 13.375L26 14.975L24.375 13.375L23.5 13H9.75L8.5 14.25V39.25L9.75 40.5H22.975L25.125 42.625H26.875L29.025 40.5H42.25L43.5 39.25V14.25L42.25 13ZM24.75 38.8L24.3 38.375L23.5 38H11V15.5H22.975L24.825 17.35L24.75 38.8ZM41 38H28.5L27.625 38.375L27.275 38.7V17.25L29.025 15.5H41V38ZM21 20.5H13.5V23H21V20.5ZM21 30.5H13.5V33H21V30.5ZM13.5 25.5H21V28H13.5V25.5ZM38.5 20.5H31V23H38.5V20.5ZM31 25.5H38.5V28H31V25.5ZM31 30.5H38.5V33H31V30.5Z" fill="#F2C94C"/>
</svg>
