<svg width="16" height="22" viewBox="0 0 16 22" fill="none" xmlns="http://www.w3.org/2000/svg">
<path d="M4.99998 8.49998C5.01034 7.70755 5.32974 6.95049 5.89012 6.39011C6.4505 5.82973 7.20756 5.51034 7.99998 5.49998C8.79241 5.51034 9.54947 5.82973 10.1098 6.39011C10.6702 6.95049 10.9896 7.70755 11 8.49998C10.9896 9.2924 10.6702 10.0495 10.1098 10.6098C9.54947 11.1702 8.79241 11.4896 7.99998 11.5C7.20756 11.4896 6.4505 11.1702 5.89012 10.6098C5.32974 10.0495 5.01034 9.2924 4.99998 8.49998ZM7.99998 17.5L12 18.5V15.42C10.7937 16.1464 9.40801 16.5206 7.99998 16.5C6.59196 16.5206 5.20631 16.1464 3.99998 15.42V18.5M7.99998 2.49998C7.21195 2.4856 6.42931 2.63254 5.70015 2.93177C4.971 3.23099 4.31075 3.67619 3.75998 4.23998C3.1901 4.79134 2.73976 5.45408 2.43697 6.18695C2.13419 6.91982 1.98544 7.70715 1.99998 8.49998C1.98956 9.28778 2.14032 10.0694 2.44298 10.7968C2.74564 11.5242 3.19381 12.1821 3.75998 12.73C4.30818 13.2992 4.96728 13.7499 5.69655 14.0544C6.42583 14.3588 7.20979 14.5105 7.99998 14.5C8.79018 14.5105 9.57414 14.3588 10.3034 14.0544C11.0327 13.7499 11.6918 13.2992 12.24 12.73C12.8062 12.1821 13.2543 11.5242 13.557 10.7968C13.8597 10.0694 14.0104 9.28778 14 8.49998C14.0145 7.70715 13.8658 6.91982 13.563 6.18695C13.2602 5.45408 12.8099 4.79134 12.24 4.23998C11.6892 3.67619 11.029 3.23099 10.2998 2.93177C9.57066 2.63254 8.78802 2.4856 7.99998 2.49998ZM16 8.49998C15.9796 9.45995 15.7865 10.4084 15.43 11.3C15.1104 12.2078 14.6256 13.0486 14 13.78V21.5L7.99998 19.5L1.99998 21.5V13.78C0.705674 12.3264 -0.00651482 10.4463 -1.56234e-05 8.49998C-0.0176405 7.45056 0.180021 6.40867 0.580767 5.43862C0.981512 4.46858 1.57684 3.59097 2.32998 2.85998C3.06369 2.10007 3.94535 1.49861 4.92055 1.09271C5.89575 0.686802 6.94379 0.485075 7.99998 0.499976C9.05618 0.485075 10.1042 0.686802 11.0794 1.09271C12.0546 1.49861 12.9363 2.10007 13.67 2.85998C14.4231 3.59097 15.0185 4.46858 15.4192 5.43862C15.8199 6.40867 16.0176 7.45056 16 8.49998Z" fill="#F2C94C"/>
</svg>
