<svg width="16" height="22" viewBox="0 0 16 22" fill="none" xmlns="http://www.w3.org/2000/svg">
<path d="M5 8.49998C5.01036 7.70755 5.32976 6.95049 5.89014 6.39011C6.45051 5.82973 7.20757 5.51034 8 5.49998C8.79243 5.51034 9.54949 5.82973 10.1099 6.39011C10.6702 6.95049 10.9896 7.70755 11 8.49998C10.9896 9.2924 10.6702 10.0495 10.1099 10.6098C9.54949 11.1702 8.79243 11.4896 8 11.5C7.20757 11.4896 6.45051 11.1702 5.89014 10.6098C5.32976 10.0495 5.01036 9.2924 5 8.49998ZM8 17.5L12 18.5V15.42C10.7937 16.1464 9.40802 16.5206 8 16.5C6.59198 16.5206 5.20632 16.1464 4 15.42V18.5M8 2.49998C7.21197 2.4856 6.42932 2.63254 5.70017 2.93177C4.97102 3.23099 4.31076 3.67619 3.76 4.23998C3.19011 4.79134 2.73977 5.45408 2.43699 6.18695C2.13421 6.91982 1.98546 7.70715 2 8.49998C1.98958 9.28778 2.14033 10.0694 2.44299 10.7968C2.74565 11.5242 3.19383 12.1821 3.76 12.73C4.3082 13.2992 4.96729 13.7499 5.69657 14.0544C6.42584 14.3588 7.2098 14.5105 8 14.5C8.7902 14.5105 9.57416 14.3588 10.3034 14.0544C11.0327 13.7499 11.6918 13.2992 12.24 12.73C12.8062 12.1821 13.2543 11.5242 13.557 10.7968C13.8597 10.0694 14.0104 9.28778 14 8.49998C14.0145 7.70715 13.8658 6.91982 13.563 6.18695C13.2602 5.45408 12.8099 4.79134 12.24 4.23998C11.6892 3.67619 11.029 3.23099 10.2998 2.93177C9.57068 2.63254 8.78803 2.4856 8 2.49998ZM16 8.49998C15.9796 9.45995 15.7865 10.4084 15.43 11.3C15.1104 12.2078 14.6256 13.0486 14 13.78V21.5L8 19.5L2 21.5V13.78C0.705689 12.3264 -0.00649957 10.4463 -3.64613e-07 8.49998C-0.0176252 7.45056 0.180037 6.40867 0.580782 5.43862C0.981528 4.46858 1.57685 3.59097 2.33 2.85998C3.0637 2.10007 3.94536 1.49861 4.92056 1.09271C5.89576 0.686802 6.9438 0.485075 8 0.499976C9.0562 0.485075 10.1042 0.686802 11.0794 1.09271C12.0546 1.49861 12.9363 2.10007 13.67 2.85998C14.4231 3.59097 15.0185 4.46858 15.4192 5.43862C15.82 6.40867 16.0176 7.45056 16 8.49998Z" fill="white"/>
</svg>
